<svg xmlns="http://www.w3.org/2000/svg" width="256" height="241" fill="#FFBC5E" viewBox="0 0 256 241" xml:space="preserve">
  <path d="M254 188V2H2v186h111v29H75v22h106v-22h-38v-29h111zM19 19h217v151H19V19zm150.385 113.8c.131 1.179 0 2.575-.306 3.885l-11.131-10.258-10.04 10.957 11.262 10.214c-1.31.437-2.575.742-3.885.742-3.885.131-7.203-1.048-10.04-3.623-2.837-2.706-4.365-5.849-4.496-9.734 0-1.353.131-2.881.437-4.191l-2.706-2.575-16.195-14.798-27.413 30.207c-1.659 2.226-4.234 3.754-7.203 3.754a8.681 8.681 0 0 1-8.687-8.687c0-2.575 1.004-4.933 2.968-6.591l28.461-29.509-17.198-15.758c-1.353.611-2.881.917-4.191.917-3.885.131-7.203-1.048-10.04-3.623s-4.365-5.718-4.496-9.603c-.131-1.179 0-2.575.306-3.885l11.262 10.214 9.953-10.913-11.262-10.214c1.179-.437 2.575-.742 3.885-.742 3.885-.131 7.203 1.048 10.04 3.623 2.837 2.532 4.365 5.849 4.496 9.734.131 1.31 0 2.575-.306 3.885l17.723 16.238 12.965-14.012-19.381-17.068 17.592-20.036 49.807 43.826-17.592 20.036-19.905-17.548-12.528 14.798 19.469 17.81c1.31-.437 2.575-.742 3.885-.742 3.885-.131 7.203 1.048 10.04 3.623 2.835 2.532 4.363 5.675 4.45 9.647z"/>
  <defs>
    <linearGradient id="paint0_linear" x1="3.69867" y1="4.89825" x2="22.5688" y2="37.2522" gradientUnits="userSpaceOnUse">
      <stop offset="0.259336" stop-color="#FFDB6E"/>
      <stop offset="1" stop-color="#FFBC5E"/>
    </linearGradient>
    <linearGradient id="paint1_linear" x1="1.17724" y1="18.7359" x2="2.78931" y2="19.2346" gradientUnits="userSpaceOnUse">
      <stop offset="0.259336" stop-color="#FFDB6E"/>
      <stop offset="1" stop-color="#FFBC5E"/>
    </linearGradient>
    <linearGradient id="paint2_linear" x1="1.17724" y1="18.7359" x2="2.78931" y2="19.2346" gradientUnits="userSpaceOnUse">
      <stop offset="0.259336" stop-color="#FFDB6E"/>
      <stop offset="1" stop-color="#FFBC5E"/>
    </linearGradient>
    <linearGradient id="paint3_linear" x1="3.26667" y1="0.900025" x2="27.6816" y2="36.6089" gradientUnits="userSpaceOnUse">
      <stop offset="0.259336" stop-color="#FFDB6E"/>
      <stop offset="1" stop-color="#FFBC5E"/>
    </linearGradient>
    <linearGradient id="paint4_linear" x1="3.26667" y1="0.900025" x2="27.6816" y2="36.6089" gradientUnits="userSpaceOnUse">
      <stop offset="0.259336" stop-color="#FFDB6E"/>
      <stop offset="1" stop-color="#FFBC5E"/>
    </linearGradient>
    <linearGradient id="paint5_linear" x1="14.1208" y1="12.223" x2="27.511" y2="27.0155" gradientUnits="userSpaceOnUse">
      <stop offset="0.259336" stop-color="#FFDB6E"/>
      <stop offset="1" stop-color="#FFBC5E"/>
    </linearGradient>
    <linearGradient id="paint6_linear" x1="14.1208" y1="12.223" x2="27.511" y2="27.0155" gradientUnits="userSpaceOnUse">
      <stop offset="0.259336" stop-color="#FFDB6E"/>
      <stop offset="1" stop-color="#FFBC5E"/>
    </linearGradient>
    <linearGradient id="paint7_linear" x1="16.2288" y1="14.5995" x2="25.5157" y2="24.8592" gradientUnits="userSpaceOnUse">
      <stop offset="0.259336" stop-color="#FFDB6E"/>
      <stop offset="1" stop-color="#FFBC5E"/>
    </linearGradient>
    <linearGradient id="paint8_linear" x1="16.2288" y1="14.5995" x2="25.5157" y2="24.8592" gradientUnits="userSpaceOnUse">
      <stop offset="0.259336" stop-color="#FFDB6E"/>
      <stop offset="1" stop-color="#FFBC5E"/>
    </linearGradient>
  </defs>
</svg>
